<svg width="20" height="18" viewBox="0 0 20 18" fill="none" xmlns="http://www.w3.org/2000/svg">
<path d="M9.60557 17.2157C8.40584 17.2157 7.20611 17.2173 6.00638 17.2157C3.23355 17.2116 1.12869 15.2389 0.935848 12.4775C0.91205 12.1402 1.01627 12.0196 1.3642 12.0245C2.57706 12.041 3.79074 12.0368 5.0036 12.027C5.31871 12.0245 5.48037 12.0672 5.50007 12.4603C5.5411 13.2825 6.19512 13.8537 7.02065 13.866C7.62052 13.875 8.22038 13.8611 8.82024 13.8709C9.03114 13.8742 9.12715 13.8028 9.10253 13.5894C9.10089 13.5763 9.10335 13.5624 9.10253 13.5484C9.08612 13.1283 9.2724 12.5883 9.0336 12.3191C8.78742 12.0418 8.23597 12.2535 7.8191 12.2281C7.60164 12.2149 7.38336 12.2264 7.16508 12.2248C6.87212 12.2231 6.83519 12.0984 6.99193 11.8719C7.42603 11.2441 7.79941 10.5811 8.14653 9.90081C8.73736 8.74457 8.73818 7.54484 8.46328 6.31803C8.16294 4.98127 7.6476 3.72492 7.01655 2.5137C6.955 2.39553 6.8114 2.25439 6.89018 2.14771C6.99603 2.00328 7.16672 2.1436 7.30212 2.17725C7.77725 2.29542 8.25238 2.41687 8.72095 2.55883C8.99996 2.64335 9.12879 2.60068 9.10664 2.27654C9.09104 2.04759 9.09843 1.81208 9.1329 1.58477C9.20019 1.1359 9.55223 0.850327 9.98058 0.86756C10.3975 0.883972 10.7495 1.2155 10.7741 1.65534C10.7963 2.04923 10.7856 2.44559 10.7782 2.84112C10.7749 3.01919 10.8414 3.10454 10.9924 3.22188C12.3292 4.25339 13.5338 5.40552 14.2551 6.97534C14.7196 7.98551 14.6318 8.95875 14.0697 9.90245C13.5847 10.7165 12.9668 11.4189 12.2848 12.073C12.0461 12.3019 11.7744 12.1993 11.5135 12.2256C11.4191 12.2354 11.3206 12.2395 11.2279 12.2248C10.8767 12.169 10.7257 12.2896 10.7766 12.6638C10.8291 13.0503 10.6108 13.5533 10.8668 13.8012C11.1007 14.0276 11.5964 13.8315 11.9722 13.8717C12.7329 13.9546 13.336 13.6682 13.8104 13.0987C14.1911 12.6408 14.6646 12.3848 15.2407 12.2346C16.3986 11.9335 17.5466 11.5904 18.693 11.245C18.9966 11.1531 19.0951 11.1965 19.118 11.5346C19.1558 12.0713 19.068 12.4439 18.4813 12.6605C17.6344 12.9723 17.1404 13.6937 16.6981 14.4453C16.3386 15.055 15.9612 15.6557 15.4975 16.194C14.9272 16.8555 14.2322 17.2387 13.3262 17.2231C12.0871 17.1993 10.8455 17.2157 9.60557 17.2157Z" fill="white"/>
</svg>
